<?xml version="1.0" ?><!DOCTYPE svg  PUBLIC '-//W3C//DTD SVG 1.1//EN'  'http://www.w3.org/Graphics/SVG/1.1/DTD/svg11.dtd'><svg xmlns="http://www.w3.org/2000/svg" xmlns:xlink="http://www.w3.org/1999/xlink"><symbol viewBox="0 0 26 26" id="arrow-down" xmlns="http://www.w3.org/2000/svg"><path d="M.046 2.582L2.13.498l10.837 10.836L23.803.498l2.084 2.084-12.92 12.92z"/><path d="M.046 13.582l2.084-2.084 10.837 10.836 10.836-10.836 2.084 2.084-12.92 12.92z"/></symbol><symbol viewBox="0 0 512 512" id="arrow-slider" xmlns="http://www.w3.org/2000/svg"><path d="M160 115.4L180.7 96 352 256 180.7 416 160 396.7 310.5 256z"/></symbol><symbol viewBox="0 -36 512.001 512" id="basket" xmlns="http://www.w3.org/2000/svg"><path d="M256 219.988c5.52 0 10-4.48 10-10s-4.48-10-10-10-10 4.48-10 10 4.48 10 10 10zm0 0"/><path d="M472 139.988h-59.137L321.895 14.836c-8.172-14.004-26.172-18.988-40.47-11.07-14.491 8.05-19.702 26.304-11.648 40.8.23.41.485.805.77 1.18l71.351 94.242H170.102l71.351-94.242c.281-.375.54-.77.77-1.18 8.035-14.46 2.882-32.73-11.66-40.808-14.266-7.903-32.266-2.922-40.454 11.07l-90.972 125.16H40c-22.055 0-40 17.946-40 40 0 17.395 11.29 32.54 27.191 37.899a9.956 9.956 0 006.118 2.101c.46 0 .894.028 1.347.09a9.971 9.971 0 018.496 8.117l34.02 187.164c2.598 14.27 15.012 24.63 29.52 24.63h298.617c14.507 0 26.921-10.36 29.52-24.634L468.847 228.2a9.976 9.976 0 018.515-8.12c.438-.063.871-.09 1.328-.09 2.32 0 4.454-.798 6.149-2.126 15.914-5.394 27.16-20.511 27.16-37.875 0-22.054-17.945-40-40-40zM286.988 34.328c-2.285-4.73-.511-10.492 4.137-13.07 4.84-2.684 10.941-.953 13.61 3.855.195.36.417.703.656 1.032l82.746 113.843H366.98zm-80.379-8.18c.239-.328.454-.668.653-1.02 2.676-4.812 8.781-6.546 13.601-3.878 4.657 2.586 6.438 8.34 4.149 13.078l-79.992 105.66h-21.157zM472 199.988H296c-5.523 0-10 4.477-10 10 0 5.524 4.477 9.899 10 9.899h154.398a30.359 30.359 0 00-1.226 4.633l-34.024 187.257a9.995 9.995 0 01-9.84 8.211H106.692a10 10 0 01-9.843-8.207l-34.02-187.164a30.19 30.19 0 00-1.226-4.629H216c5.523 0 10-4.476 10-10 0-5.523-4.477-10-10-10H40c-11.121 0-20-9.062-20-20 0-11.027 8.973-20 20-20h432c11.027 0 20 8.973 20 20 0 11.106-9.086 20-20 20zm0 0"/><path d="M256 249.988c-16.543 0-30 13.457-30 30v80c0 16.543 13.457 30 30 30s30-13.457 30-30v-80c0-16.574-13.426-30-30-30zm10 110c0 5.516-4.484 10-10 10s-10-4.484-10-10v-80c0-5.515 4.484-10 10-10 5.52 0 10 4.48 10 10zm0 0M356 389.988c16.543 0 30-13.457 30-30v-80c0-16.574-13.426-30-30-30-16.543 0-30 13.457-30 30v80c0 16.543 13.457 30 30 30zm-10-110c0-5.515 4.484-10 10-10 5.52 0 10 4.48 10 10v80c0 5.516-4.484 10-10 10s-10-4.484-10-10zm0 0M156 249.988c-16.543 0-30 13.457-30 30v80c0 16.543 13.457 30 30 30s30-13.457 30-30v-80c0-16.574-13.426-30-30-30zm10 110c0 5.516-4.484 10-10 10s-10-4.484-10-10v-80c0-5.515 4.484-10 10-10 5.52 0 10 4.477 10 10zm0 0"/></symbol><symbol viewBox="0 0 100 100" id="bedroom" xmlns="http://www.w3.org/2000/svg"><path fill-rule="evenodd" clip-rule="evenodd" d="M8.722 0H91.34v23.868H8.72V0zm44.857 34.578h24.48v8.751H53.58v-8.751zm-32.007 0h24.42v8.751h-24.42v-8.751zM.765 85.006l98.224 1.04L98.867 100 .643 99.02l.122-14.014zm7.098-55.202h83.904l7.59 51.101c-29.253 0-68.727-.797-97.978-.797C3.518 63.341 5.66 46.573 7.863 29.804z"/></symbol><symbol viewBox="0 0 100 100" id="commode" xmlns="http://www.w3.org/2000/svg"><path d="M92.716 10.007V85.503H88.52v11.112c0 1.84-1.471 3.385-3.238 3.385h-1.987c-1.544 0-2.795-1.326-2.795-3.018V85.504H20.382v11.111c0 1.84-1.47 3.385-3.236 3.385h-1.989c-1.545 0-2.794-1.326-2.794-3.018V85.504H8.094V10.007H3.458C1.545 10.007 0 8.388 0 6.33v-1.62C0 2.648 1.545.955 3.458.955h93.084C98.455.955 100 2.648 100 4.709v1.62c0 2.06-1.545 3.678-3.458 3.678h-3.826zm-46.505 6.62h9.86c1.325 0 2.428 1.177 2.428 2.58v2.939c0 1.4-1.103 2.576-2.429 2.576h-9.86c-1.323 0-2.429-1.176-2.429-2.576v-2.94c0-1.402 1.106-2.579 2.43-2.579zm-.737 35.398h9.862c1.323 0 2.428 1.176 2.428 2.645v2.871c0 1.47-1.105 2.65-2.428 2.65h-9.862c-1.325 0-2.426-1.18-2.426-2.65V54.67c0-1.469 1.101-2.645 2.426-2.645zM77.04 14.347H23.769v25.167H77.04V14.347zm0 35.395H23.769v25.166H77.04V49.742z"/></symbol><symbol viewBox="0 0 100 100" id="hallway" xmlns="http://www.w3.org/2000/svg"><path d="M17.114 0H85.785V95.066H14.214V0h2.9zm58.302 41.767h.508c.58 0 1.017.51 1.017 1.09v9.424c0 .652-.437 1.09-1.017 1.09h-.508c-.508 0-.941-.438-.941-1.09v-9.425c0-.58.433-1.09.941-1.09zm-55.4 28.935h27.048v-17.33H20.015v17.33zm27.048 1.596H20.015v16.604h27.049V72.298zM20.015 51.776h27.049V35.604H20.015v16.172zm0-17.77h27.049V14.285H20.015v19.723zm0-23.855h27.049V6.164H20.015v3.987zm32.92 0h27.05V6.164h-27.05v3.987zm27.05 4.133h-27.05v74.618h27.05V14.284zM54.458 43.58c0-4.497 0 24.149 0 0zm16.824 52.501h7.106V100h-7.106v-3.919zm-49.383 0h7.105V100H21.9v-3.919z"/></symbol><symbol viewBox="0 0 100 100" id="kitchen" xmlns="http://www.w3.org/2000/svg"><path d="M3.52 21.213h92.977v-8.727H3.52v8.727zm92.977 3.64H3.52V46.49h92.977V24.854zM99.398 100H0h13.48H.016V8.778H100V100H85.918h13.48zm-2.9-27.821V50.132H3.52V96.36h92.977V72.18zm-12.9-42.31c2.956 0 5.29 2.54 5.29 5.632 0 3.158-2.334 5.63-5.29 5.63-2.952 0-5.357-2.472-5.357-5.63 0-3.093 2.405-5.633 5.358-5.633zm-66.424 0c2.885 0 5.29 2.54 5.29 5.632 0 3.158-2.405 5.63-5.29 5.63-2.955 0-5.359-2.472-5.359-5.63 0-3.093 2.404-5.633 5.359-5.633z"/><path d="M62.023 29.868c-2.953 0-5.356 2.54-5.356 5.633 0 3.158 2.403 5.63 5.356 5.63 2.956 0 5.291-2.472 5.291-5.63 0-3.093-2.335-5.633-5.29-5.633zM38.595 29.868c-2.953 0-5.357 2.54-5.357 5.633 0 3.158 2.404 5.63 5.357 5.63 2.956 0 5.29-2.472 5.29-5.63 0-3.093-2.334-5.633-5.29-5.633zM85 90H16V57h69v33zm-67-2h64V60H18v28z"/></symbol><symbol viewBox="0 0 100 100" id="lamp" xmlns="http://www.w3.org/2000/svg"><path fill-rule="evenodd" clip-rule="evenodd" d="M50.165 0c-1.72 0-3.107 1.521-3.107 3.304v40.054a6.353 6.353 0 00-2.775 5.288v12.557c0 .398 0 .726.066 1.057-11.103 2.709-19.5 13.22-19.697 25.843v.529l50.696-.33c-.07-12.557-8.263-23.132-19.368-25.978.065-.328.065-.723.065-1.12V48.645a6.353 6.353 0 00-2.774-5.288V3.304C53.27 1.52 51.883 0 50.165 0zm-.134 100c-6.475 0-12.16-3.57-15.397-8.99h30.73c-3.236 5.42-8.922 8.99-15.333 8.99z"/></symbol><symbol viewBox="0 0 100 100" id="living" xmlns="http://www.w3.org/2000/svg"><path fill-rule="evenodd" clip-rule="evenodd" d="M88.85 47.832l3.465-3.349H7.685l3.464 3.349h77.702zM55.807 37.318c-.577-.52-.752-1.384-.81-1.673h-9.993c-.057.289-.23 1.097-.865 1.556l-.117.117h-3.177c-1.157 0-2.138 1.04-2.138 2.255 0 4.157 22.587 4.157 22.587 0 0-1.215-.98-2.255-2.137-2.255h-3.35zm-.866-3.35l-.117-2.6h16.062c1.039 0 2.021-.345 2.021-1.442V1.964C72.906.866 71.924 0 70.885 0H29.06c-.984 0-1.964.866-1.964 1.964v27.962c0 1.097.98 1.442 1.964 1.442h16.117l-.117 2.6h9.88zm14.961-7.74H30.1V3.178H69.9v23.05zM88.851 100V49.568H11.149V100h5.144v-3.582H83.65V100h5.2zM20.855 56.037h58.291c.98 0 1.85.403 2.484 1.097s1.039 1.617 1.039 2.657v7.566a3.914 3.914 0 01-1.04 2.66 3.322 3.322 0 01-2.483 1.097h-58.29a3.318 3.318 0 01-2.484-1.097 3.907 3.907 0 01-1.04-2.66v-7.566c0-1.04.403-1.964 1.04-2.657a3.318 3.318 0 012.483-1.097zm34.141 7.51c0 .636-.173 1.212-.46 1.616-.349.464-.807.81-1.388.81h-6.296c-.577 0-1.041-.346-1.387-.81-.288-.404-.462-.98-.462-1.615 0-.581.174-1.157.462-1.56.346-.463.81-.808 1.387-.808h6.296c.58 0 1.04.345 1.387.808.288.403.461.979.461 1.56zM46.91 79.319H19.7v12.016h27.21V79.318zm-11.902 6.006c0 .233-.057.406-.113.522-.118.172-.29.289-.463.289h-2.195c-.174 0-.347-.117-.463-.29-.113-.115-.173-.288-.173-.52 0-.23.06-.403.173-.52.116-.174.29-.29.463-.29h2.195c.173 0 .345.116.463.29.056.117.113.29.113.52zm46.218-6.006H53.957v12.016h27.269V79.318zm-11.903 6.006c0 .233-.115.406-.172.522-.115.172-.289.289-.463.289h-2.194c-.174 0-.346-.117-.463-.29-.113-.115-.172-.288-.172-.52 0-.23.059-.403.172-.52.117-.174.29-.29.463-.29h2.194c.174 0 .348.116.463.29.057.117.172.29.172.52z"/></symbol><symbol viewBox="0 0 100 100" id="office" xmlns="http://www.w3.org/2000/svg"><path fill-rule="evenodd" clip-rule="evenodd" d="M42.882 0h13.936c6.996 0 12.664 6.092 12.664 13.45v25.03c0 7.359-5.668 13.39-12.664 13.39h-3.44v4.523h14.356c.662 0 1.327.665 1.748 1.75.24.603.422 1.266.543 2.051 9.772-.182 7.602-10.013 7.36-19.06h-.362c-.726 0-1.328-.663-1.328-1.388v-1.688c0-.784.602-1.386 1.328-1.386h5.426c.725 0 1.326.602 1.326 1.386v1.688c0 .725-.601 1.387-1.326 1.387h-.48c.12 11.883 2.834 24.49-12.004 24.006-.121.603-.242 1.146-.483 1.629-.421 1.085-1.086 1.81-1.748 1.81H51.811V88.48c4.162.363 8.142 1.57 12.123 4.222.181.844-.059 1.388-.905 1.569-4.043-2.714-8.08-3.801-12.303-4.042v5.368l-.06.362-.422.483-.364.06-.362-.06-.481-.483-.06-.362v-5.368c-4.042.181-7.358.906-11.642 3.62-.843-.182-1.085-.725-.843-1.569 4.16-2.653 7.418-3.498 11.4-3.861V68.577H31.967c-.664 0-1.327-.724-1.749-1.81a10.72 10.72 0 01-.485-1.628c-14.594.301-11.88-12.183-11.758-24.006h-.483c-.664 0-1.268-.662-1.268-1.387v-1.688c0-.784.604-1.386 1.268-1.386h5.489c.723 0 1.324.602 1.324 1.386v1.688c0 .725-.601 1.387-1.324 1.387h-.425c0 .725-.06 1.449-.06 2.294-.421 8.683-1.445 15.137 5.973 16.585.362.06.783.122 1.205.122a9.753 9.753 0 01.544-1.991c.06-.06.06-.181.12-.302.422-.904 1.024-1.448 1.63-1.448h14.413V51.87h-3.5c-6.934 0-12.663-6.031-12.663-13.39V13.45C30.22 6.092 35.948 0 42.882 0zm18.7 94.573c.783 0 1.387.18 1.387.36v2.473c0 .243-.604.423-1.387.423-.785 0-1.389-.18-1.389-.423v-2.472c0-.181.604-.36 1.389-.36zm3.377 0c.787 0 1.389.18 1.389.36v2.473c0 .243-.602.423-1.389.423-.783 0-1.387-.18-1.387-.423v-2.472c0-.181.604-.36 1.387-.36zm-30.096-.242c.783 0 1.387.18 1.387.422v2.412c0 .241-.604.424-1.387.424-.784 0-1.388-.183-1.388-.424v-2.412c0-.241.604-.422 1.388-.422zm3.376 0c.787 0 1.387.18 1.387.422v2.412c0 .241-.6.424-1.387.424-.783 0-1.386-.183-1.386-.424v-2.412c0-.241.603-.422 1.386-.422zm9.954 2.412c.724 0 1.386.182 1.386.422v2.412c0 .242-.662.423-1.386.423-.785 0-1.389-.18-1.389-.423v-2.412c0-.24.604-.422 1.389-.422zm3.375 0c.725 0 1.389.182 1.389.422v2.412c0 .242-.664.423-1.389.423-.782 0-1.384-.18-1.384-.423v-2.412c0-.24.602-.422 1.384-.422z"/></symbol><symbol viewBox="0 0 100 100" id="pouf" xmlns="http://www.w3.org/2000/svg"><g fill-rule="evenodd" clip-rule="evenodd"><path d="M89.34 42.354H70.826L83.73 97.056c.42 1.82 1.965 2.944 3.645 2.944h.42c1.824-.285 3.228-1.963 3.228-3.93V42.212c-.562 0-1.123.142-1.683.142zM12.482 0h75.034c4.488 0 8.134 3.787 8.134 8.556v18.657c0 4.764-3.646 8.69-8.134 8.69H12.482c-4.489 0-8.132-3.926-8.132-8.69V8.556C4.35 3.787 7.993 0 12.482 0zM10.52 42.354c-.562 0-1.122-.142-1.686-.142V96.07c0 1.967 1.404 3.645 3.368 3.93h.422c1.68 0 3.226-1.124 3.646-2.944l12.902-54.702H10.52z"/><path d="M35.331 26.701h29.196c14.532 0 26.496 7.67 26.496 16.97v31.706c0 9.39-11.964 17.06-26.496 17.06H35.331c-14.674 0-26.497-7.67-26.497-17.06V43.671c0-9.3 11.823-16.97 26.497-16.97z"/></g></symbol><symbol viewBox="0 0 1792 1792" id="register" xmlns="http://www.w3.org/2000/svg"><path d="M576 896q-159 0-271.5-112.5T192 512t112.5-271.5T576 128t271.5 112.5T960 512 847.5 783.5 576 896zm960 128h352q13 0 22.5 9.5t9.5 22.5v192q0 13-9.5 22.5t-22.5 9.5h-352v352q0 13-9.5 22.5t-22.5 9.5h-192q-13 0-22.5-9.5t-9.5-22.5v-352H928q-13 0-22.5-9.5T896 1248v-192q0-13 9.5-22.5t22.5-9.5h352V672q0-13 9.5-22.5t22.5-9.5h192q13 0 22.5 9.5t9.5 22.5v352zm-736 224q0 52 38 90t90 38h256v238q-68 50-171 50H139q-121 0-194-69t-73-190q0-53 3.5-103.5t14-109T-84 1084t43-97.5 62-81 85.5-53.5T218 832q19 0 39 17 79 61 154.5 91.5T576 971t164.5-30.5T895 849q20-17 39-17 132 0 217 96H928q-52 0-90 38t-38 90v192z"/></symbol><symbol viewBox="0 0 512 512" id="search" xmlns="http://www.w3.org/2000/svg"><path d="M344.5 298c15-23.6 23.8-51.6 23.8-81.7 0-84.1-68.1-152.3-152.1-152.3C132.1 64 64 132.2 64 216.3c0 84.1 68.1 152.3 152.1 152.3 30.5 0 58.9-9 82.7-24.4l6.9-4.8L414.3 448l33.7-34.3-108.5-108.6 5-7.1zm-43.1-166.8c22.7 22.7 35.2 52.9 35.2 85s-12.5 62.3-35.2 85c-22.7 22.7-52.9 35.2-85 35.2s-62.3-12.5-85-35.2c-22.7-22.7-35.2-52.9-35.2-85s12.5-62.3 35.2-85c22.7-22.7 52.9-35.2 85-35.2s62.3 12.5 85 35.2z"/></symbol><symbol viewBox="0 0 1792 1792" id="sign-in" xmlns="http://www.w3.org/2000/svg"><path d="M1312 896q0 26-19 45l-544 544q-19 19-45 19t-45-19-19-45v-288H192q-26 0-45-19t-19-45V704q0-26 19-45t45-19h448V352q0-26 19-45t45-19 45 19l544 544q19 19 19 45zm352-352v704q0 119-84.5 203.5T1376 1536h-320q-13 0-22.5-9.5t-9.5-22.5q0-4-1-20t-.5-26.5 3-23.5 10-19.5 20.5-6.5h320q66 0 113-47t47-113V544q0-66-47-113t-113-47h-312l-11.5-1-11.5-3-8-5.5-7-9-2-13.5q0-4-1-20t-.5-26.5 3-23.5 10-19.5 20.5-6.5h320q119 0 203.5 84.5T1664 544z"/></symbol><symbol viewBox="0 0 100 100" id="sofa" xmlns="http://www.w3.org/2000/svg"><path fill-rule="evenodd" clip-rule="evenodd" d="M57.093 54.746h13.58c3.547 0 6.49 3.124 6.49 6.91v13.402c0 5.829-3.545 6.252-7.451 6.252h-11.72c-3.905 0-7.39-.423-7.39-6.252V61.656c0-3.786 2.883-6.91 6.49-6.91zm-28.126-.3h13.581c3.606 0 6.49 3.065 6.49 6.85V74.76c0 3.784-2.884 6.85-6.49 6.85h-13.58c-3.548 0-6.491-3.066-6.491-6.85V61.297c0-3.786 2.943-6.852 6.49-6.852zM99.82 96.39c.12.3.181.664.181 1.023 0 1.44-1.081 2.586-2.403 2.586h-6.49c-1.323 0-2.405-1.146-2.405-2.586 0-.36.06-.723.18-1.023H11.118c.18.3.24.664.24 1.023 0 1.44-1.081 2.586-2.402 2.586H2.404C1.082 100 0 98.854 0 97.414c0-.36.121-.723.24-1.023V60.755c0-3.125 4.388-5.65 9.797-5.65h9.734v24.22h3.005c.36 1.142 1.323 1.985 2.404 2.583 1.443.722 3.125 1.023 4.688 1.023h11.778c1.563 0 3.306-.301 4.749-1.023 1.021-.598 1.983-1.441 2.402-2.583h2.045c.419 1.142 1.38 1.985 2.403 2.583 1.442.722 3.186 1.023 4.747 1.023h11.72c1.622 0 3.305-.301 4.747-1.023 1.021-.598 1.983-1.441 2.404-2.583h3.486v-24.22h9.795c5.35 0 9.736 2.525 9.736 5.65V96.39h-.06z"/></symbol><symbol viewBox="0 0 100 100" id="tables" xmlns="http://www.w3.org/2000/svg"><path fill-rule="evenodd" clip-rule="evenodd" d="M4.916 75.815H25.316c.666 0 1.262.598 1.262 1.33v2.524c0 .732-.596 1.33-1.262 1.33h-.797V100h-4.916v-6.71H4.916V100H0V61.331c0-1.33 1.064-2.393 2.259-2.393h.465c1.197 0 2.192 1.063 2.192 2.326v14.551zm12.426-14.287h13.954v36.613h4.453l.266-30.962h28.503l.464 30.962h4.122V61.528h15.614c1.994.332 1.527-2.391 1.527-3.254v-.464c0-.866-.663-1.595-1.527-1.595H17.342c-.796 0-1.46.73-1.46 1.595v.464c0 .863-.467 3.39 1.46 3.254zm46.713-1.657v3.651l-27.508.332-.068-3.983h27.576zm31.029 15.944H74.683c-.662 0-1.26.598-1.26 1.33v2.524c0 .732.598 1.33 1.26 1.33h.8V100H80.4v-6.71h14.685V100H100V61.331c0-1.33-1.064-2.393-2.326-2.393h-.398c-1.262 0-2.192 1.063-2.192 2.326v14.551zM80.399 90.633v-9.634h14.685v9.634H80.399zm-60.796 0v-9.634H4.916v9.634h14.687z"/></symbol><symbol viewBox="0 0 512 512" id="test" xmlns="http://www.w3.org/2000/svg"><path d="M512 256c0 57.01-18.641 109.672-50.155 152.221a257.537 257.537 0 01-39.706 42.548C377.428 488.95 319.415 512 256 512c-36.728 0-71.638-7.732-103.205-21.661a254.293 254.293 0 01-38.902-21.379 254.983 254.983 0 01-24.033-18.192 257.537 257.537 0 01-39.706-42.548C18.641 365.672 0 313.01 0 256s18.641-109.672 50.155-152.221a257.365 257.365 0 0173.446-66.926C162.231 13.458 207.538 0 256 0c.334 0 .669 0 1.003.01 48.086.178 93.038 13.605 131.396 36.843a257.365 257.365 0 0173.446 66.926C493.359 146.327 512 198.99 512 256z"/><path d="M476.615 220.615c0 49.129-16.064 94.513-43.222 131.18a222.009 222.009 0 01-34.217 36.668c-38.531 32.903-88.525 52.767-143.174 52.767-31.651 0-61.736-6.663-88.94-18.667a219.13 219.13 0 01-33.525-18.424 219.714 219.714 0 01-20.711-15.677 221.89 221.89 0 01-34.217-36.668c-27.158-36.667-43.222-82.051-43.222-131.18s16.063-94.513 43.221-131.18a221.807 221.807 0 0163.294-57.675C175.192 11.598 214.236 0 256 0c.288 0 .577 0 .864.009 41.44.153 80.178 11.724 113.234 31.75a221.78 221.78 0 0163.294 57.675c27.158 36.667 43.223 82.052 43.223 131.181z"/><path d="M461.845 74.898V408.22a257.537 257.537 0 01-39.706 42.548C377.428 488.95 319.415 512 256 512c-36.728 0-71.638-7.732-103.205-21.661a254.293 254.293 0 01-38.902-21.379 254.983 254.983 0 01-24.033-18.192 257.537 257.537 0 01-39.706-42.548V74.898c0-21.013 17.032-38.045 38.045-38.045h335.6c21.014.001 38.046 17.032 38.046 38.045z"/><path d="M422.139 146.516v304.253C377.428 488.95 319.415 512 256 512c-36.728 0-71.638-7.732-103.205-21.661a254.293 254.293 0 01-38.902-21.379 254.983 254.983 0 01-24.033-18.192V146.516c0-13.249 10.731-23.98 23.97-23.98h284.327c13.24-.001 23.982 10.73 23.982 23.98z"/><path d="M357.874 47.084v67.312c0 12.581-10.188 22.768-22.768 22.768H176.888c-12.581 0-22.768-10.188-22.768-22.768V47.084c0-12.581 10.188-22.768 22.768-22.768h39.832C223.909 9.907 238.799.001 255.998.001c2.675 0 5.298.24 7.837.7 12.037 2.163 22.361 9.247 28.829 19.08.084.125.157.24.23.366a39.613 39.613 0 011.735 2.936c.24.439.46.857.648 1.233h39.832c12.578 0 22.765 10.188 22.765 22.768z"/><path d="M357.874 47.084v67.312c0 12.581-10.188 22.768-22.768 22.768H192.561c-12.581 0-22.768-10.188-22.768-22.768V47.084c0-12.581 10.188-22.768 22.768-22.768h24.158C223.908 9.907 238.798.001 255.997.001c2.675 0 5.298.24 7.837.7 12.037 2.163 22.361 9.247 28.829 19.08.084.125.157.24.23.366a69.576 69.576 0 011.735 2.936c.24.439.46.857.648 1.233h39.832c12.579 0 22.766 10.188 22.766 22.768z"/><circle cx="256" cy="35.809" r="15.151"/><path d="M312.421 103.728H199.572c-6.059 0-10.971-4.912-10.971-10.971s4.912-10.971 10.971-10.971h112.849c6.059 0 10.971 4.912 10.971 10.971.001 6.059-4.911 10.971-10.971 10.971zM190.171 264.641h-65.829c-5.77 0-10.449-4.678-10.449-10.449v-65.829c0-5.771 4.679-10.449 10.449-10.449h65.829c5.77 0 10.449 4.678 10.449 10.449v65.829c0 5.771-4.679 10.449-10.449 10.449zm-55.379-20.898h44.931v-44.931h-44.931v44.931zM295.706 211.352h-65.829c-5.77 0-10.449-4.678-10.449-10.449s4.679-10.449 10.449-10.449h65.829c5.77 0 10.449 4.678 10.449 10.449s-4.679 10.449-10.449 10.449zM377.208 252.103h-147.33c-5.77 0-10.449-4.678-10.449-10.449s4.679-10.449 10.449-10.449h147.331c5.77 0 10.449 4.678 10.449 10.449s-4.68 10.449-10.45 10.449zM190.171 377.49h-65.829c-5.77 0-10.449-4.678-10.449-10.449v-65.829c0-5.771 4.679-10.449 10.449-10.449h65.829c5.77 0 10.449 4.678 10.449 10.449v65.829c0 5.771-4.679 10.449-10.449 10.449zm-55.379-20.898h44.931v-44.931h-44.931v44.931zM295.706 324.2h-65.829c-5.77 0-10.449-4.678-10.449-10.449s4.679-10.449 10.449-10.449h65.829c5.77 0 10.449 4.678 10.449 10.449s-4.679 10.449-10.449 10.449zM377.208 364.951h-147.33c-5.77 0-10.449-4.678-10.449-10.449s4.679-10.449 10.449-10.449h147.331c5.77 0 10.449 4.678 10.449 10.449-.001 5.771-4.68 10.449-10.45 10.449zM190.171 403.613h-65.829c-5.768 0-10.449 4.681-10.449 10.449v54.899a254.464 254.464 0 0038.902 21.379h37.376c5.768 0 10.449-4.681 10.449-10.449v-65.829c0-5.768-4.681-10.449-10.449-10.449zm-10.449 65.828h-44.931V424.51h44.931v44.931zM295.706 437.049h-65.829c-5.77 0-10.449-4.678-10.449-10.449s4.679-10.449 10.449-10.449h65.829c5.77 0 10.449 4.678 10.449 10.449s-4.679 10.449-10.449 10.449zM377.208 477.8h-147.33c-5.77 0-10.449-4.678-10.449-10.449s4.679-10.449 10.449-10.449h147.331c5.77 0 10.449 4.678 10.449 10.449-.001 5.771-4.68 10.449-10.45 10.449z"/><path d="M156.733 368.085a10.445 10.445 0 01-8.691-4.653l-33.437-50.155c-3.201-4.801-1.904-11.289 2.898-14.49 4.802-3.201 11.289-1.904 14.49 2.899l23.2 34.799 29.716-62.734c2.469-5.215 8.7-7.441 13.916-4.97 5.215 2.47 7.44 8.701 4.97 13.916l-37.616 79.411a10.452 10.452 0 01-9.446 5.977z"/></symbol><symbol viewBox="0 0 100 100" id="wardrobe" xmlns="http://www.w3.org/2000/svg"><path d="M17.068 0h68.727V95.102h-71.59V0h2.863zm27.205 42.276c.678 0 1.282.602 1.282 1.356v7.837c0 .677-.604 1.283-1.282 1.283-.68 0-1.206-.606-1.206-1.283v-7.837c0-.754.527-1.356 1.206-1.356zm11.38 0c.677 0 1.205.602 1.205 1.356v7.837c0 .677-.528 1.283-1.206 1.283-.678 0-1.206-.606-1.206-1.283v-7.837c0-.754.528-1.356 1.206-1.356zM71.25 96.082h7.16V100h-7.16v-3.918zm-49.36 0h7.16V100h-7.16v-3.918zM52.865 6.18v82.666h27.054V6.18H52.864zm-5.802 82.666V6.18H20.007v82.666h27.055z"/></symbol></svg>